<?xml version="1.0" encoding="UTF-8" standalone="no"?>
<!-- Created with Inkscape (http://www.inkscape.org/) -->

<svg
   width="29mm"
   height="23mm"
   viewBox="0 0 29 23"
   version="1.1"
   id="svg1"
   inkscape:version="1.4 (e7c3feb100, 2024-10-09)"
   sodipodi:docname="passe.svg"
   xmlns:inkscape="http://www.inkscape.org/namespaces/inkscape"
   xmlns:sodipodi="http://sodipodi.sourceforge.net/DTD/sodipodi-0.dtd"
   xmlns="http://www.w3.org/2000/svg"
   xmlns:svg="http://www.w3.org/2000/svg">
  <sodipodi:namedview
     id="namedview1"
     pagecolor="#ffffff"
     bordercolor="#000000"
     borderopacity="0.25"
     inkscape:showpageshadow="2"
     inkscape:pageopacity="0.0"
     inkscape:pagecheckerboard="0"
     inkscape:deskcolor="#d1d1d1"
     inkscape:document-units="mm"
     inkscape:zoom="1.9099422"
     inkscape:cx="162.04679"
     inkscape:cy="106.28594"
     inkscape:window-width="1920"
     inkscape:window-height="1011"
     inkscape:window-x="0"
     inkscape:window-y="0"
     inkscape:window-maximized="1"
     inkscape:current-layer="layer1" />
  <defs
     id="defs1" />
  <g
     inkscape:label="Camada 1"
     inkscape:groupmode="layer"
     id="layer1">
    <g
       id="g261"
       transform="matrix(0.26458333,0,0,0.26458333,-32.495183,-9.2461331)">
      <g
         id="g251"
         transform="rotate(-38.736678,203.91131,80.336488)">
        <g
           id="g225"
           transform="translate(1.5831135,-1.5831135)">
		<path
   style="fill:#eead6e"
   d="m 189.443,86.646 c 0,0 -2.509,-7.33 0.099,-12.578 0,0 -0.655,-3.782 4.51,-11.909 0,0 0.719,-10.148 4.115,-12.575 0,0 6.806,-0.542 2.65,12.731 0,0 -2.632,6.152 -2.377,7.021 0.255,0.87 1.042,-3.32 9.286,-10.289 0,0 2.67,-4.373 4.207,-7.185 0,0 1.549,-8.071 4.042,-9.978 0,0 4.795,-2.109 2.727,4.539 0,0 0.177,-2.771 1.765,-3.466 0,0 4.633,-0.419 2.295,7.139 0,0 -0.134,-1.349 1.5,-1.24 0,0 1.541,0.185 0.573,5.922 l -0.276,7.324 c 0,0 1.137,1.376 0.61,3.353 0,0 -0.361,9.403 -6.415,15.177 0,0 -6.432,8.864 -10.053,11.393 0,0 -5.066,9.742 -5.268,14.538 0,0 -5.082,-3.515 -16.113,-3.813 0,0.002 2.766,-13.571 2.123,-16.104 z"
   id="path218" />

		<path
   style="fill:#d89761"
   d="m 211.272,66.332 c 0,0 4.37,-6.618 5.758,-11.239 0,0 1.794,-4.933 1.71,-9.024 l 0.46,-2.793 c 0,0 -2.014,12.846 -5.043,16.043 0,0 -1.543,5.558 -2.885,7.013 z"
   id="path219" />

		<path
   style="fill:#d89761"
   d="m 223.069,48.971 c 0,0 0.005,5.874 -1.343,8.724 0,0 -2.215,7.965 -3.696,9.534 0,0 2.374,-7.632 2.556,-10.212 0,-0.001 2.143,-5.173 2.483,-8.046 z"
   id="path220" />

		<path
   style="fill:#d89761"
   d="m 224.559,62.104 c 0,0 -1.758,6.275 -3.685,7.867 0,0 -2.447,6.421 -2.247,7.645 0,0 0.666,-6.338 1.82,-9.143 0,0 3.112,-2.957 4.112,-6.369 z"
   id="path221" />

		<path
   style="fill:#d89761"
   d="m 198.167,49.585 c 0,0 5.424,-1.092 4,8.108 0,0 -1.005,5.406 -2.106,6.458 0,0 -2.047,4.766 -1.622,5.186 0,0 0.108,-5.566 1.915,-9.914 10e-4,-0.001 1.688,-7.015 -2.187,-9.838 z"
   id="path222" />

		<path
   style="fill:#fcbc7d"
   d="m 216.985,41.606 c 0,0 -3.196,-0.846 -5.053,10.257 0,0 -3.811,5.935 -4.207,7.185 0,0 -6.649,5.565 -6.766,6.895 -0.024,0.246 5.595,-2.381 8.804,-6.617 0,0 3.227,-4.404 3.788,-7.182 0,-10e-4 1.114,-7.681 3.434,-10.538 z"
   id="path223" />

		<path
   style="fill:#fcbc7d"
   d="m 220.466,42.958 c 0,0 -1.516,0.581 -1.726,3.326 0,0 -1.212,8.432 -2.768,11.584 0,0 -4.156,8.051 -4.701,8.463 0,0 4.567,-4.043 7.847,-14.081 0.001,10e-4 2.182,-8.284 1.348,-9.292 z"
   id="path224" />

		<path
   style="fill:#fcbc7d"
   d="m 223.18,49.104 c 0,0 -0.373,6.449 -1.556,8.949 0,0 -2.792,8.397 -3.594,9.176 0,0 3.708,-5.667 4.618,-8.908 0,0 1.579,-6.731 1.171,-9.452 0.001,0 -0.288,-0.096 -0.639,0.235 z"
   id="path225" />

	</g>
        <g
           id="g226"
           transform="translate(1.5831135,-1.5831135)">
		<polygon
   style="fill:#dedddd"
   points="207.293,101.521 188.548,91.75 184.684,101.748 205.454,112.732 "
   id="polygon225" />

		<polygon
   style="fill:#79a8bf"
   points="205.454,112.732 204.048,122.273 179.348,112.963 184.684,101.748 "
   id="polygon226" />

		<path
   style="fill:#4e5051"
   d="m 200.485,102.803 c -0.883,0.563 -1.088,1.819 -0.46,2.803 0.629,0.983 1.854,1.323 2.737,0.76 0.882,-0.563 1.088,-1.819 0.46,-2.803 -0.629,-0.984 -1.853,-1.324 -2.737,-0.76 z"
   id="path226" />

	</g>
      </g>
      <g
         id="g260"
         transform="matrix(-0.74395966,-0.66822453,-0.66822453,0.74395966,358.36475,156.50711)"
         inkscape:transform-center-x="12.551519"
         inkscape:transform-center-y="-1.5250544">
        <g
           id="g258"
           transform="translate(1.5831135,-1.5831135)">
		<path
   style="fill:#eead6e"
   d="m 189.443,86.646 c 0,0 -2.509,-7.33 0.099,-12.578 0,0 -0.655,-3.782 4.51,-11.909 0,0 0.719,-10.148 4.115,-12.575 0,0 6.806,-0.542 2.65,12.731 0,0 -2.632,6.152 -2.377,7.021 0.255,0.87 1.042,-3.32 9.286,-10.289 0,0 2.67,-4.373 4.207,-7.185 0,0 1.549,-8.071 4.042,-9.978 0,0 4.795,-2.109 2.727,4.539 0,0 0.177,-2.771 1.765,-3.466 0,0 4.633,-0.419 2.295,7.139 0,0 -0.134,-1.349 1.5,-1.24 0,0 1.541,0.185 0.573,5.922 l -0.276,7.324 c 0,0 1.137,1.376 0.61,3.353 0,0 -0.361,9.403 -6.415,15.177 0,0 -6.432,8.864 -10.053,11.393 0,0 -5.066,9.742 -5.268,14.538 0,0 -5.082,-3.515 -16.113,-3.813 0,0.002 2.766,-13.571 2.123,-16.104 z"
   id="path251" />

		<path
   style="fill:#d89761"
   d="m 211.272,66.332 c 0,0 4.37,-6.618 5.758,-11.239 0,0 1.794,-4.933 1.71,-9.024 l 0.46,-2.793 c 0,0 -2.014,12.846 -5.043,16.043 0,0 -1.543,5.558 -2.885,7.013 z"
   id="path252" />

		<path
   style="fill:#d89761"
   d="m 223.069,48.971 c 0,0 0.005,5.874 -1.343,8.724 0,0 -2.215,7.965 -3.696,9.534 0,0 2.374,-7.632 2.556,-10.212 0,-0.001 2.143,-5.173 2.483,-8.046 z"
   id="path253" />

		<path
   style="fill:#d89761"
   d="m 224.559,62.104 c 0,0 -1.758,6.275 -3.685,7.867 0,0 -2.447,6.421 -2.247,7.645 0,0 0.666,-6.338 1.82,-9.143 0,0 3.112,-2.957 4.112,-6.369 z"
   id="path254" />

		<path
   style="fill:#d89761"
   d="m 198.167,49.585 c 0,0 5.424,-1.092 4,8.108 0,0 -1.005,5.406 -2.106,6.458 0,0 -2.047,4.766 -1.622,5.186 0,0 0.108,-5.566 1.915,-9.914 10e-4,-0.001 1.688,-7.015 -2.187,-9.838 z"
   id="path255" />

		<path
   style="fill:#fcbc7d"
   d="m 216.985,41.606 c 0,0 -3.196,-0.846 -5.053,10.257 0,0 -3.811,5.935 -4.207,7.185 0,0 -6.649,5.565 -6.766,6.895 -0.024,0.246 5.595,-2.381 8.804,-6.617 0,0 3.227,-4.404 3.788,-7.182 0,-10e-4 1.114,-7.681 3.434,-10.538 z"
   id="path256" />

		<path
   style="fill:#fcbc7d"
   d="m 220.466,42.958 c 0,0 -1.516,0.581 -1.726,3.326 0,0 -1.212,8.432 -2.768,11.584 0,0 -4.156,8.051 -4.701,8.463 0,0 4.567,-4.043 7.847,-14.081 0.001,10e-4 2.182,-8.284 1.348,-9.292 z"
   id="path257" />

		<path
   style="fill:#fcbc7d"
   d="m 223.18,49.104 c 0,0 -0.373,6.449 -1.556,8.949 0,0 -2.792,8.397 -3.594,9.176 0,0 3.708,-5.667 4.618,-8.908 0,0 1.579,-6.731 1.171,-9.452 0.001,0 -0.288,-0.096 -0.639,0.235 z"
   id="path258" />

	</g>
        <g
           id="g259"
           transform="translate(1.5831135,-1.5831135)">
		<polygon
   style="fill:#dedddd"
   points="207.293,101.521 188.548,91.75 184.684,101.748 205.454,112.732 "
   id="polygon258" />

		<polygon
   style="fill:#79a8bf"
   points="205.454,112.732 204.048,122.273 179.348,112.963 184.684,101.748 "
   id="polygon259" />

		<path
   style="fill:#4e5051"
   d="m 200.485,102.803 c -0.883,0.563 -1.088,1.819 -0.46,2.803 0.629,0.983 1.854,1.323 2.737,0.76 0.882,-0.563 1.088,-1.819 0.46,-2.803 -0.629,-0.984 -1.853,-1.324 -2.737,-0.76 z"
   id="path259" />

	</g>
      </g>
    </g>
  </g>
</svg>
